<?xml version="1.0" encoding="UTF-8"?>
<!DOCTYPE svg PUBLIC "-//W3C//DTD SVG 1.1//EN" "http://www.w3.org/Graphics/SVG/1.1/DTD/svg11.dtd">
<!-- Creator: CorelDRAW 2019 (64-Bit) -->
<svg xmlns="http://www.w3.org/2000/svg" xml:space="preserve" width="618.432mm" height="153.472mm" version="1.1" style="shape-rendering:geometricPrecision; text-rendering:geometricPrecision; image-rendering:optimizeQuality; fill-rule:evenodd; clip-rule:evenodd"
viewBox="0 0 471283.22 116955.03"
 xmlns:xlink="http://www.w3.org/1999/xlink"
 xmlns:xodm="http://www.corel.com/coreldraw/odm/2003">
 <defs>
  <style type="text/css">
   <![CDATA[
    .fil0 {fill:#BBC274}
    .fil1 {fill:#A12421;fill-rule:nonzero}
    .fil2 {fill:#BBC274;fill-rule:nonzero}
   ]]>
  </style>
 </defs>
 <g id="Слой_x0020_1">
  <metadata id="CorelCorpID_0Corel-Layer"/>
  <polygon class="fil0" points="13276.57,69638.75 -0,14837.8 13888.5,949.3 67889.13,949.3 10922.41,14837.8 13276.57,25666.1 "/>
  <polygon class="fil0" points="85260.11,104037.31 139512.52,116955.03 153922.81,103608.65 153637.03,49647.73 139962.74,103857.62 "/>
  <path class="fil1" d="M208493.53 1105.68l24079.63 0 0 8231.34 -15725.38 0 0 7924.15 15725.38 0 0 8108.49 -15725.38 0 0 11609.86 15725.38 0 0 8231.26 -24079.63 0 0 -44105.1zm41568.5 0l7965.15 0 19001.56 29024.58 0 -29024.58 8354.26 0 0 44105.1 -8026.65 0 -18940.06 -28932.37 0 28932.37 -8354.26 0 0 -44105.1zm50700.9 0l24386.75 0 0 8292.68 -8047.15 0 0 35812.42 -8538.37 0 0 -35812.42 -7801.23 0 0 -8292.68zm39787.03 0l24079.63 0 0 8231.34 -15725.38 0 0 7924.15 15725.38 0 0 8108.49 -15725.38 0 0 11609.86 15725.38 0 0 8231.26 -24079.63 0 0 -44105.1zm82049.31 7740.04l-5886.78 5589.8c-4003.11,-4218.09 -8497.45,-6327.02 -13503.81,-6327.02 -4218.01,0 -7780.88,1443.65 -10667.95,4320.36 -2897.36,2876.94 -4341.01,6419.15 -4341.01,10637.24 0,2938.28 645.01,5549.03 1924.82,7821.8 1279.73,2282.99 3091.84,4074.67 5426.03,5374.82 2344.56,1300.23 4944.94,1945.24 7811.67,1945.24 2436.54,0 4668.47,-450.38 6685.42,-1361.58 2027.08,-911.2 4248.65,-2569.83 6664.84,-4965.37l5702.43 5958.41c-3255.61,3184.05 -6337.31,5395.48 -9234.51,6624 -2897.36,1238.81 -6214.54,1853.03 -9930.81,1853.03 -6859.55,0 -12480.06,-2170.5 -16851.71,-6521.65 -4371.57,-4340.78 -6552.21,-9920.45 -6552.21,-16708.29 0,-4402.2 993.04,-8302.82 2989.57,-11722.42 1986.09,-3419.45 4832.24,-6163.1 8548.51,-8241.47 3706.14,-2078.3 7698.88,-3122.63 11988.68,-3122.63 3634.35,0 7135.87,767.78 10514.4,2303.64 3368.16,1535.55 6275.73,3716.42 8712.43,6542.07zm16925.93 -7740.04l8538.37 0 0 16646.94 14742.62 0 0 -16646.94 8477.03 0 0 44105.1 -8477.03 0 0 -19349.67 -14742.62 0 0 19349.67 -8538.37 0 0 -44105.1z"/>
  <path class="fil2" d="M208493.53 66639.96l24079.63 0 0 8231.26 -15725.38 0 0 7924.23 15725.38 0 0 8108.49 -15725.38 0 0 11609.79 15725.38 0 0 8231.26 -24079.63 0 0 -44105.02zm73626.39 7740.04l-5886.78 5589.72c-4003.11,-4218.01 -8497.45,-6326.94 -13503.81,-6326.94 -4218.01,0 -7780.88,1443.57 -10667.95,4320.36 -2897.36,2876.94 -4341.01,6419.15 -4341.01,10637.17 0,2938.36 645.01,5549.03 1924.82,7821.88 1279.73,2282.91 3091.84,4074.59 5426.03,5374.82 2344.56,1300.15 4944.94,1945.24 7811.75,1945.24 2436.46,0 4668.39,-450.38 6685.34,-1361.58 2027.08,-911.27 4248.65,-2569.83 6664.84,-4965.44l5702.43 5958.49c-3255.61,3184.05 -6337.31,5395.48 -9234.51,6624 -2897.36,1238.81 -6214.54,1853.03 -9930.81,1853.03 -6859.55,0 -12480.06,-2170.5 -16851.71,-6521.65 -4371.57,-4340.86 -6552.21,-9920.45 -6552.21,-16708.29 0,-4402.2 993.04,-8302.82 2989.57,-11722.49 1986.09,-3419.45 4832.24,-6163.1 8548.51,-8241.4 3706.14,-2078.3 7698.88,-3122.63 11988.68,-3122.63 3634.35,0 7135.87,767.78 10514.4,2303.56 3368.24,1535.63 6275.73,3716.42 8712.43,6542.15zm29357.6 -8845.71c6234.81,0 11599.5,2262.64 16083.78,6777.47 4494.41,4515.06 6736.55,10022.94 6736.55,16513.81 0,6439.65 -2211.43,11886.34 -6644.42,16339.83 -4422.86,4453.41 -9797.68,6685.34 -16114.49,6685.34 -6624,0 -12121.74,-2293.27 -16493.38,-6869.68 -4381.7,-4576.41 -6572.71,-10012.66 -6572.71,-16309.04 0,-4207.73 1023.91,-8087.99 3061.13,-11630.29 2037.37,-3532.08 4842.6,-6337.31 8405.32,-8405.32 3573.16,-2068.16 7422.56,-3102.13 11538.23,-3102.13zm-122.92 8231.26c-4064.46,0 -7483.91,1423.15 -10248.06,4258.94 -2774.59,2836.01 -4156.67,6439.8 -4156.67,10821.59 0,4873.23 1740.47,8732.85 5231.63,11568.86 2713.02,2221.56 5814.99,3327.32 9326.65,3327.32 3962.19,0 7340.71,-1443.5 10125.44,-4320.36 2794.86,-2876.94 4187.3,-6419.15 4187.3,-10637.24 0,-4197.59 -1402.73,-7750.09 -4218.09,-10657.67 -2805.23,-2907.65 -6224.67,-4361.43 -10248.21,-4361.43z"/>
  <polygon class="fil2" points="49820.11,30936.29 76938.01,30936.29 76938.01,40206.01 59228.45,40206.01 59228.45,49130.06 76938.01,49130.06 76938.01,58261.7 59228.45,58261.7 59228.45,71336.32 76938.01,71336.32 76938.01,80606.19 49820.11,80606.19 "/>
  <polygon class="fil2" points="85792.79,30936.29 112910.69,30936.29 112910.69,40206.01 95201.13,40206.01 95201.13,49130.06 112910.69,49130.06 112910.69,58261.7 95201.13,58261.7 95201.13,71336.32 112910.69,71336.32 112910.69,80606.19 85792.79,80606.19 "/>
 </g>
</svg>
